<mxfile host="app.diagrams.net" modified="2024-09-04T03:34:24.131Z" agent="Mozilla/5.0 (Windows NT 10.0; Win64; x64) AppleWebKit/537.36 (KHTML, like Gecko) Chrome/128.0.0.0 Safari/537.36" version="24.2.2" etag="ocJyYzUR0MKBUhnZzUXp" type="github">
  <diagram name="Page-1" id="AoOXf9ItH6I_0t1YY7ty">
    <mxGraphModel>
      <root>
        <mxCell id="0" />
        <mxCell id="1" parent="0" />
      </root>
    </mxGraphModel>
  </diagram>
</mxfile>
